<svg xmlns="http://www.w3.org/2000/svg" xmlns:xlink="http://www.w3.org/1999/xlink" viewBox="0 0 292.31 601.02"><defs><style>.cls-1{fill:url(#linear-gradient);}.cls-2{fill:#fff;}.cls-3{fill:#f7a600;}</style><linearGradient id="linear-gradient" x1="29.19" y1="76.45" x2="184.74" y2="391.39" gradientUnits="userSpaceOnUse"><stop offset="0" stop-color="#f7a600"/><stop offset="0.12" stop-color="#f3a401"/><stop offset="0.25" stop-color="#e79e05"/><stop offset="0.38" stop-color="#d2940c"/><stop offset="0.51" stop-color="#b68515"/><stop offset="0.64" stop-color="#917320"/><stop offset="0.77" stop-color="#635c2f"/><stop offset="0.9" stop-color="#2f423f"/><stop offset="1" stop-color="#002a4e"/></linearGradient></defs><title>alsaadiqin_logo</title><g id="Layer_2" data-name="Layer 2"><g id="Layer_1-2" data-name="Layer 1"><path class="cls-1" d="M178.34,371.29c-2.3,15.25,1.86,34-8.61,47.48,28.16-136.06-137.3-156.61-97.84-313.64C61.37,216.64,191.42,256.05,178.34,371.29Z"/><path class="cls-2" d="M183.69,191c-16.69,56-91,78.4-98.3,139.06C53.7,235.63,200.17,211.78,178.93,126.53,182.75,146.35,188.92,169.74,183.69,191Z"/><path class="cls-2" d="M180.77,141.46C166.19,206.36,54.62,238.74,87.06,315c2.33,4.59-1.52,9.21-1.67,15.1C37.72,165.16,191.9,187.49,175.11,80.68,178.9,99.78,184.12,120.89,180.77,141.46Z"/><path class="cls-2" d="M161.45,57.22c-.18,1.19-.39,2.38-.64,3.55-.66-4.73-1.13-8.29-1.84-14.92A80.85,80.85,0,0,1,161.45,57.22Z"/><path class="cls-2" d="M163.73,110.35c-16.7,56-91,78.4-98.31,139.06C17.76,84.47,171.93,106.82,155.15,0c3.75,17.84,8.06,37.89,6.3,57.22A80.85,80.85,0,0,0,159,45.85c11.2,65.73-106.9,100.47-98,171.06,8.87-68,103-90.86,100.5-159.69C163.56,73.88,168.7,92.67,163.73,110.35Z"/><path class="cls-2" d="M161.45,57.22c-.18,1.19-.39,2.38-.64,3.55-.66-4.73-1.13-8.29-1.84-14.92A80.85,80.85,0,0,1,161.45,57.22Z"/><path class="cls-3" d="M201,131c18.86,17.48,10.44,11.34-.14,24.59C182,138.11,190.38,144.25,201,131Z"/><path class="cls-3" d="M200.85,151l12.22,12.36c-17.48,18.88-11.35,10.43-24.58-.14Z"/><path class="cls-3" d="M142.18,395.89,130,383.53c17.49-18.88,11.35-10.43,24.59.14Z"/><path class="cls-3" d="M71.37,107.42c-18.87-17.48-10.45-11.34.14-24.59C90.37,100.31,82,94.17,71.37,107.42Z"/><path class="cls-3" d="M71.48,87.44C52.62,70,61,76.1,71.62,62.85,90.49,80.34,82.06,74.2,71.48,87.44Z"/><path class="cls-2" d="M239.74,313.26c-17.45,76.51-54.87,83.14-71.08,110.4-13.48,22.66-16.4,65.32-28.28,88.41C-3.41,258.42,212.22,296.32,189.92,177.25,235.25,309.49,45.42,315.5,109.45,427.6c-27.07-121,114-123.67,95.84-217,45.33,134.33-149,137.38-78.13,254.53,16.35-89.15,141-145.22,106.26-245.74-10.67-28.2-19.7-52.45-17.82-83.5C241.33,190.24,247.31,253.49,239.74,313.26Z"/><path class="cls-2" d="M64.39,596.19H59.85L59,598.77H56.24l4.67-12.55h2.4L68,598.77H65.26Zm-3.84-2.1h3.14l-1.58-4.7Z"/><path class="cls-2" d="M81.47,596.7H87v2.07H78.88V586.22h2.59Z"/><path class="cls-2" d="M104.87,595.48a1.33,1.33,0,0,0-.52-1.13,6.72,6.72,0,0,0-1.86-.82,13.07,13.07,0,0,1-2.13-.86,3.48,3.48,0,0,1-2.14-3.12,3,3,0,0,1,.58-1.81,3.77,3.77,0,0,1,1.64-1.25,6.2,6.2,0,0,1,2.41-.45,5.71,5.71,0,0,1,2.4.49,3.91,3.91,0,0,1,1.64,1.38,3.65,3.65,0,0,1,.58,2h-2.59a1.71,1.71,0,0,0-.54-1.35,2.29,2.29,0,0,0-1.53-.47,2.36,2.36,0,0,0-1.47.4,1.23,1.23,0,0,0,.09,2.08,7,7,0,0,0,1.81.78,7.89,7.89,0,0,1,3.22,1.64,3.31,3.31,0,0,1,1,2.45,3,3,0,0,1-1.24,2.56,5.36,5.36,0,0,1-3.32.93,6.52,6.52,0,0,1-2.64-.53A4.22,4.22,0,0,1,98.46,597a3.67,3.67,0,0,1-.63-2.14h2.6c0,1.39.83,2.08,2.48,2.08a2.4,2.4,0,0,0,1.44-.37A1.21,1.21,0,0,0,104.87,595.48Z"/><path class="cls-2" d="M126.49,596.19H122l-.86,2.58h-2.75L123,586.22h2.4l4.7,12.55h-2.75Zm-3.84-2.1h3.14l-1.58-4.7Z"/><path class="cls-2" d="M149.13,596.19H144.6l-.87,2.58H141l4.68-12.55h2.39l4.7,12.55H150Zm-3.84-2.1h3.14l-1.57-4.7Z"/><path class="cls-2" d="M163.63,598.77V586.22h3.86a5.94,5.94,0,0,1,3,.74,5.27,5.27,0,0,1,2,2.12,6.54,6.54,0,0,1,.73,3.13v.58a6.55,6.55,0,0,1-.72,3.11,5.12,5.12,0,0,1-2,2.12,5.84,5.84,0,0,1-3,.75Zm2.58-10.46v8.39h1.25a2.79,2.79,0,0,0,2.32-1,4.42,4.42,0,0,0,.82-2.83v-.67a4.56,4.56,0,0,0-.79-2.9,2.8,2.8,0,0,0-2.32-1Z"/><path class="cls-2" d="M186.68,598.77h-2.59V586.22h2.59Z"/><path class="cls-2" d="M208.25,592.78a7.6,7.6,0,0,1-.57,3.06,5.29,5.29,0,0,1-1.58,2.08l2.09,1.64L206.54,601l-2.67-2.15a5.89,5.89,0,0,1-1,.08,5.25,5.25,0,0,1-2.79-.75,5.05,5.05,0,0,1-1.9-2.15,7.53,7.53,0,0,1-.68-3.2v-.62a7.64,7.64,0,0,1,.67-3.27,5,5,0,0,1,1.89-2.16,5.5,5.5,0,0,1,5.58,0,5,5,0,0,1,1.89,2.16,7.62,7.62,0,0,1,.67,3.26Zm-2.62-.57a5.27,5.27,0,0,0-.71-3,2.32,2.32,0,0,0-2-1,2.3,2.3,0,0,0-2,1,5.24,5.24,0,0,0-.72,3v.61a5.34,5.34,0,0,0,.71,3,2.47,2.47,0,0,0,4,0,5.39,5.39,0,0,0,.71-3Z"/><path class="cls-2" d="M221.71,598.77h-2.59V586.22h2.59Z"/><path class="cls-2" d="M242.79,598.77H240.2l-5-8.26v8.26h-2.58V586.22h2.58l5.05,8.28v-8.28h2.58Z"/><path class="cls-3" d="M18.4,538.85a4.18,4.18,0,0,0,4.22-4.22,4.34,4.34,0,0,0-1.22-3.1,4,4,0,0,0-3-1.29A4.39,4.39,0,0,0,14,534.63a3.94,3.94,0,0,0,1.28,3A4.31,4.31,0,0,0,18.4,538.85Z"/><path class="cls-3" d="M57.09,568.71a4.37,4.37,0,0,0-4.38,4.38,3.94,3.94,0,0,0,1.28,3,4.31,4.31,0,0,0,3.1,1.23,4.2,4.2,0,0,0,4.22-4.22,4.31,4.31,0,0,0-1.23-3.1A3.94,3.94,0,0,0,57.09,568.71Z"/><path class="cls-3" d="M45.81,568.71a4.39,4.39,0,0,0-4.39,4.38,4,4,0,0,0,1.29,3,4.31,4.31,0,0,0,3.1,1.23A4.2,4.2,0,0,0,50,573.09,4.31,4.31,0,0,0,48.8,570,3.94,3.94,0,0,0,45.81,568.71Z"/><path class="cls-3" d="M112.65,535.71a4.18,4.18,0,0,0,4.22-4.21,4.33,4.33,0,0,0-1.23-3.11,4,4,0,0,0-3-1.28,4.37,4.37,0,0,0-4.39,4.39,4,4,0,0,0,1.28,3A4.32,4.32,0,0,0,112.65,535.71Z"/><path class="cls-3" d="M129.94,545.6a11.27,11.27,0,0,0-1.68-3.7,8.29,8.29,0,0,0-3-2.62,10.08,10.08,0,0,0-4.78-1q-6.27,0-9.46,3.05T107.81,550a6.56,6.56,0,0,0,.42,2.28,11,11,0,0,0,1.11,2.16,10.45,10.45,0,0,0,1.57,1.86,8.7,8.7,0,0,0,1.85,1.33H55.21V538.85l-7.23,2v16.69H34.24a6.62,6.62,0,0,0,.06-.88v-.88a76.65,76.65,0,0,0-.48-8.44,74.5,74.5,0,0,0-1.46-8.49l-6.83,2.23a68,68,0,0,1,1.39,7.77,64.2,64.2,0,0,1,.49,7.84,14.07,14.07,0,0,1-.54,3.73,11.54,11.54,0,0,1-1.71,3.59,9.92,9.92,0,0,1-3,2.71,8.17,8.17,0,0,1-4.3,1.08H15.56a8.21,8.21,0,0,1-4.31-1.08,10,10,0,0,1-3-2.71,11.11,11.11,0,0,1-1.71-3.59A14.07,14.07,0,0,1,6,556.74a19.08,19.08,0,0,1,1.08-6.15,28.66,28.66,0,0,1,2.57-5.65H5.3a22.57,22.57,0,0,1-1.54,2.31A19.24,19.24,0,0,0,2,550.13a20.33,20.33,0,0,0-1.42,4,22.07,22.07,0,0,0-.6,5.5A13.71,13.71,0,0,0,1.4,566,13.94,13.94,0,0,0,5,570.5a15.47,15.47,0,0,0,4.93,2.68,17.1,17.1,0,0,0,5.33.88h2.34a16.9,16.9,0,0,0,4.47-.62,16.16,16.16,0,0,0,4.27-1.91,17,17,0,0,0,3.71-3.22,16.82,16.82,0,0,0,2.76-4.5h93.56q4.34,0,4.33-6c0-1.06,0-2.29.06-3.67a41.33,41.33,0,0,0-.11-4.28A25.22,25.22,0,0,0,129.94,545.6ZM120,555.69a11.78,11.78,0,0,1-3.19-2,8.55,8.55,0,0,1-2-2.48,5.56,5.56,0,0,1-.68-2.48,7.53,7.53,0,0,1,.17-1.54,3.9,3.9,0,0,1,.68-1.56,4.11,4.11,0,0,1,1.51-1.23,5.87,5.87,0,0,1,2.65-.51,4.54,4.54,0,0,1,2.85.8,4.8,4.8,0,0,1,1.54,2.42,16.7,16.7,0,0,1,.65,4q.15,2.39.15,5.52A13.11,13.11,0,0,1,120,555.69Z"/><path class="cls-3" d="M123.93,535.71a4.18,4.18,0,0,0,4.22-4.21,4.33,4.33,0,0,0-1.23-3.11,4,4,0,0,0-3-1.28,4.39,4.39,0,0,0-4.39,4.39,4,4,0,0,0,1.29,3A4.29,4.29,0,0,0,123.93,535.71Z"/><path class="cls-3" d="M157.44,546.06a23.62,23.62,0,0,0-4.91-5.42,17.33,17.33,0,0,0-6.89-3.39l-1.59,6.27A17.78,17.78,0,0,1,149.4,547a15.68,15.68,0,0,1,3,4,14.32,14.32,0,0,1,1.37,3.79,15.85,15.85,0,0,1,.34,2.87H141.25a13.69,13.69,0,0,1-1.88-.11,11.21,11.21,0,0,1-1.48-.28l-1.37-.46L136,563c.42.15.87.31,1.37.46a11.21,11.21,0,0,0,1.48.28,13.61,13.61,0,0,0,1.88.12h20.57v-6.22a18.52,18.52,0,0,0-1-5.44A24.87,24.87,0,0,0,157.44,546.06Z"/><path class="cls-3" d="M271.17,557.59H260.34a50.12,50.12,0,0,0-.46-5.55,19.68,19.68,0,0,0-1.56-5.59,12,12,0,0,0-3.25-4.33,8.35,8.35,0,0,0-5.5-1.73,18,18,0,0,0-8.8,2.39,46.65,46.65,0,0,0-9.43,7.24l-.06-8.38L224,543.69v13.9H175V525.17l-7.23,2.05v36.59H278.4V525.17l-7.23,2.05Zm-18.41,0H230.88q8.43-10.3,15.1-10.31a6.36,6.36,0,0,1,5,2,7.63,7.63,0,0,1,1.76,5.24Z"/><polygon class="cls-3" points="285.07 527.22 285.07 563.8 292.31 563.8 292.31 525.17 285.07 527.22"/></g></g></svg>