<svg xmlns="http://www.w3.org/2000/svg" viewBox="0 0 27.63 27.63"><defs><style>.cls-1{fill:#fff;}</style></defs><title>insta</title><g id="Layer_2" data-name="Layer 2"><g id="Layer_1-2" data-name="Layer 1"><path class="cls-1" d="M25.36,2.55l-.28-.27A8.21,8.21,0,0,0,19.4,0H8.23A8.24,8.24,0,0,0,0,8.23V19.4a8.24,8.24,0,0,0,8.23,8.23H19.4a7.87,7.87,0,0,0,.84,0,8.24,8.24,0,0,0,7.39-8.19V8.23A8.25,8.25,0,0,0,25.36,2.55Zm-6,22.3H8.23A5.45,5.45,0,0,1,2.78,19.4V8.23A5.45,5.45,0,0,1,8.23,2.78H19.4a5.31,5.31,0,0,1,2.36.54,4.23,4.23,0,0,1,.47.25c.15.09.29.19.43.29l.21.16c.13.12.26.23.38.36a5.41,5.41,0,0,1,1.6,3.85V19.4A5.45,5.45,0,0,1,19.4,24.85Z"/><circle class="cls-1" cx="20.98" cy="6.72" r="1.71"/><path class="cls-1" d="M20.82,12.38c-.05-.24-.11-.46-.18-.69a7.27,7.27,0,0,0-.71-1.58q-.18-.29-.39-.57a7.33,7.33,0,0,0-1.73-1.65c-.1-.06-.19-.13-.29-.18l-.61-.34a7.14,7.14,0,0,0-3.09-.7h-.06a7.15,7.15,0,0,0,0,14.29h.42A7.15,7.15,0,0,0,21,13.82a5.85,5.85,0,0,0,0-.73C20.9,12.85,20.86,12.61,20.82,12.38ZM9.45,13.82a4.37,4.37,0,1,1,8.73,0c0,.15,0,.29,0,.44a4.37,4.37,0,0,1-8.71-.44Z"/></g></g></svg>