<svg xmlns="http://www.w3.org/2000/svg" viewBox="0 0 33.05 27.84"><defs><style>.cls-1{fill:#fff;}.cls-2{fill:#c8c8c8;}</style></defs><title>tele</title><g id="Layer_2" data-name="Layer 2"><g id="Layer_1-2" data-name="Layer 1"><path class="cls-1" d="M30.93.11A1.55,1.55,0,0,1,33,1.88L27.85,26.55a1.62,1.62,0,0,1-2.55,1l-7.79-5.71-4,4.05a1.32,1.32,0,0,1-2.2-.53L8.47,16.24.79,14A1.1,1.1,0,0,1,.7,11.89ZM27.14,5.58A.37.37,0,0,0,26.7,5L10.12,15.28a.76.76,0,0,0-.32.86l2.26,9.93a.14.14,0,0,0,.28,0l.51-7.56A.73.73,0,0,1,13.1,18Z"/><path class="cls-1" d="M26.7,5a.37.37,0,0,1,.44.58L13.1,18a.73.73,0,0,0-.25.48L12.34,26a.14.14,0,0,1-.28,0L9.8,16.14a.76.76,0,0,1,.32-.86Z"/><path class="cls-1" d="M12.14,26.18a1.33,1.33,0,0,1-.8-.85L8.47,16.24.79,14A1.1,1.1,0,0,1,.7,11.89L30.93.11A1.54,1.54,0,0,1,32.8.72a2.17,2.17,0,0,0-.24-.29L12.05,17.17v.73l-.11-.08.11,4.62v3.7l.09,0Z"/><path class="cls-1" d="M33.05,1.46a2.12,2.12,0,0,1,0,.42L27.85,26.55a1.62,1.62,0,0,1-2.55,1l-7.79-5.71L12.05,17.9v-.73L32.56.43a2.17,2.17,0,0,1,.24.29l0,.07a.25.25,0,0,1,0,.07l0,.07A.25.25,0,0,1,33,1a.19.19,0,0,0,0,.07.94.94,0,0,1,.06.24C33,1.36,33,1.41,33.05,1.46Z"/><path class="cls-1" d="M17.51,21.81l-4,4.05-.11.1-.1.08h0a1.27,1.27,0,0,1-.23.12l-.12,0a1.53,1.53,0,0,1-.52.05l-.13,0h0l-.13,0,0,0-.09-3.73V17.9Z"/><path class="cls-1" d="M13.43,26l-.1.08h0Z"/><path class="cls-1" d="M13.33,26Z"/><path class="cls-1" d="M13.1,26.16a1.27,1.27,0,0,0,.23-.12Z"/><path class="cls-1" d="M12.46,26.25A1.53,1.53,0,0,0,13,26.2a1.26,1.26,0,0,1-.38.06h-.14Z"/><path class="cls-1" d="M12.6,26.26h0Z"/><path class="cls-1" d="M12.46,26.25h0Z"/><path class="cls-1" d="M12.46,26.25h-.13Z"/><path class="cls-1" d="M12.18,26.19l.13,0h-.05s0,0,0,0Z"/><path class="cls-1" d="M12.26,26.21h0Z"/><path class="cls-1" d="M12.18,26.19h.06l-.09,0Z"/><path class="cls-1" d="M12.18,26.19h0Z"/><path class="cls-1" d="M12.05,22.44l.09,3.73-.09,0Z"/><polygon class="cls-1" points="12.05 17.9 12.05 22.43 11.94 17.82 12.05 17.9"/><path class="cls-2" d="M27.14,5.58,13.1,18a.73.73,0,0,0-.25.48l-.51,7.57a.14.14,0,0,1-.28,0L9.8,16.14a.76.76,0,0,1,.32-.86L26.7,5A.37.37,0,0,1,27.14,5.58Z"/></g></g></svg>