<svg xmlns="http://www.w3.org/2000/svg" viewBox="0 0 27.63 27.63"><defs><style>.cls-1{fill:#fff;}</style></defs><title>tiktok</title><g id="Layer_2" data-name="Layer 2"><g id="Layer_1-2" data-name="Layer 1"><path class="cls-1" d="M3.29,0A3.3,3.3,0,0,0,0,3.29V24.34a3.3,3.3,0,0,0,3.29,3.29H24.34a3.3,3.3,0,0,0,3.29-3.29v-21A3.3,3.3,0,0,0,24.34,0Zm0,1.32H24.34a2,2,0,0,1,2,2V24.34a2,2,0,0,1-2,2h-21a2,2,0,0,1-2-2v-21A2,2,0,0,1,3.29,1.32ZM14.5,4a.66.66,0,0,0-.66.65s0,3.21,0,6.43c0,1.6,0,3.21,0,4.42V17.5a2.29,2.29,0,0,1-2.33,2.17,2.21,2.21,0,0,1,0-4.42l.27,0a.66.66,0,0,0,.73-.58.22.22,0,0,0,0-.08V11.87a.66.66,0,0,0-.62-.66l-.39,0a6.27,6.27,0,1,0,6.27,6.27v-6a5.57,5.57,0,0,0,3.47,1.25,4.12,4.12,0,0,0,.51,0,.65.65,0,0,0,.6-.65V9a.65.65,0,0,0-.61-.65A4.25,4.25,0,0,1,17.8,4.54.66.66,0,0,0,17.14,4Zm.66,1.31h1.5A5.48,5.48,0,0,0,21,9.5v1.89a4.28,4.28,0,0,1-3.37-1.88.65.65,0,0,0-.91-.19.66.66,0,0,0-.29.55v7.59a5,5,0,1,1-5.27-4.89V14a3.5,3.5,0,0,0,.31,7,3.59,3.59,0,0,0,3.64-3.48v-2c0-1.22,0-2.82,0-4.43C15.15,8.14,15.16,5.82,15.16,5.26Z"/></g></g></svg>