<svg xmlns="http://www.w3.org/2000/svg" viewBox="0 0 34.46 27.99"><defs><style>.cls-1{fill:#fff;}</style></defs><title>tweter</title><g id="Layer_2" data-name="Layer 2"><g id="Layer_1-2" data-name="Layer 1"><path class="cls-1" d="M30.92,7c0,.29,0,.6,0,.92C31,17.23,23.84,28,10.84,28A19.86,19.86,0,0,1,0,24.82a13.35,13.35,0,0,0,1.69.1,14.25,14.25,0,0,0,8.77-3A7.13,7.13,0,0,1,3.84,17a6,6,0,0,0,1.35.13A6.56,6.56,0,0,0,7,16.87,7.09,7.09,0,0,1,1.38,9.93V9.86a7.16,7.16,0,0,0,3.18.87A7.12,7.12,0,0,1,1.44,4.85a7,7,0,0,1,1-3.56A20,20,0,0,0,17,8.67a7,7,0,0,1-.16-1.6A7.07,7.07,0,0,1,29,2.23,14.1,14.1,0,0,0,33.5.53a7.09,7.09,0,0,1-3.1,3.9,14.82,14.82,0,0,0,4.06-1.12A14,14,0,0,1,30.92,7Z"/></g></g></svg>